<svg preserveAspectRatio="none" overflow="visible" style="display: block;" width="15" height="14" viewBox="0 0 15 14" fill="none" xmlns="http://www.w3.org/2000/svg">
<g id="SVG" clip-path="url(#clip0_0_33)">
<path id="Vector" fill-rule="evenodd" clip-rule="evenodd" d="M13.1253 0.0105076L6.64804 0.811234L1.12013 1.49619C0.639694 1.556 0.265375 1.89559 0.163113 2.37024C0.0589225 2.84296 0.209429 3.4025 0.666711 3.56458L6.50911 5.62331C6.94324 5.77574 7.22687 6.15391 7.25581 6.61312L7.63595 12.7951C7.66483 13.2794 8.16264 13.5765 8.64697 13.6055C9.1293 13.6364 9.55962 13.3682 9.74869 12.9224L11.9213 7.79395L14.4662 1.78368C14.6495 1.34956 14.5936 0.88648 14.308 0.510238C14.0244 0.135922 13.5941 -0.0473763 13.1291 0.0105076H13.1253Z" fill="white"/>
</g>
<defs>
<clipPath id="clip0_0_33">
<rect width="15" height="14" fill="white"/>
</clipPath>
</defs>
</svg>
